<?xml version="1.0" standalone="no"?>
<!DOCTYPE svg PUBLIC "-//W3C//DTD SVG 20010904//EN"
 "http://www.w3.org/TR/2001/REC-SVG-20010904/DTD/svg10.dtd">
<svg version="1.0" xmlns="http://www.w3.org/2000/svg"
 width="1024.000000pt" height="1024.000000pt" viewBox="0 0 1024.000000 1024.000000"
 preserveAspectRatio="xMidYMid meet">
<metadata>
Created by potrace 1.14, written by Peter Selinger 2001-2017
</metadata>
<g transform="translate(0.000000,1024.000000) scale(0.100000,-0.100000)"
fill="#000000" stroke="none">
<path d="M4797 9445 c76 -21 168 -70 213 -114 103 -100 113 -232 33 -436 -19
-49 -41 -106 -48 -125 -8 -19 -35 -73 -61 -120 -26 -47 -58 -107 -72 -135 -13
-27 -30 -57 -37 -65 -7 -8 -41 -64 -76 -125 -34 -60 -65 -112 -69 -115 -8 -6
-70 -109 -70 -115 0 -3 -24 -45 -53 -93 -30 -48 -65 -108 -78 -134 -13 -26
-45 -87 -71 -137 -27 -50 -48 -96 -48 -103 0 -7 -7 -26 -15 -42 -33 -62 -75
-200 -87 -281 -28 -198 43 -346 213 -442 64 -36 120 -54 262 -87 48 -11 31 20
-23 43 -28 12 -59 30 -68 39 -119 123 -137 168 -129 321 6 109 20 162 72 277
15 32 36 82 46 109 10 28 41 88 69 135 27 47 50 89 50 93 0 4 29 54 64 110 35
56 67 112 70 124 4 13 13 29 20 35 15 17 76 116 116 193 17 33 37 67 45 75 32
37 177 346 211 450 34 105 37 125 38 235 1 106 -2 125 -22 165 -58 115 -80
136 -205 199 -117 58 -200 81 -283 80 l-59 0 52 -14z"/>
<path d="M6260 8771 c0 -5 15 -11 32 -15 18 -4 68 -21 112 -39 87 -35 137 -82
177 -164 43 -88 24 -231 -52 -401 -17 -37 -40 -90 -50 -119 -11 -28 -28 -62
-38 -75 -10 -13 -39 -63 -66 -113 -26 -49 -67 -120 -91 -156 -24 -37 -44 -70
-44 -75 0 -4 -29 -53 -65 -109 -36 -56 -65 -105 -65 -109 0 -4 -19 -37 -43
-74 -64 -98 -192 -348 -218 -423 -12 -35 -25 -68 -29 -74 -19 -25 -51 -169
-57 -252 -9 -138 13 -205 99 -305 63 -73 183 -135 337 -173 93 -24 97 -7 8 44
-67 38 -128 102 -163 169 -51 101 -41 242 31 420 14 34 36 89 49 122 14 33 34
75 44 93 11 18 39 70 62 117 24 47 53 99 65 115 12 17 45 73 74 125 29 52 64
110 78 128 13 18 35 56 49 85 13 28 46 86 73 128 26 41 53 90 59 108 6 17 20
44 30 59 32 44 81 159 123 286 53 159 62 271 29 365 -12 35 -35 84 -51 108
-33 47 -161 143 -191 143 -10 0 -31 6 -46 14 -36 18 -192 56 -231 56 -17 0
-31 -4 -31 -9z"/>
<path d="M3290 8702 c0 -6 10 -14 23 -17 54 -16 159 -58 170 -69 6 -6 29 -24
49 -40 52 -39 75 -80 87 -156 17 -102 -8 -232 -69 -365 -87 -188 -208 -411
-268 -493 -12 -17 -29 -46 -38 -64 -13 -30 -83 -147 -177 -298 -70 -112 -187
-358 -221 -463 -48 -149 -60 -214 -54 -310 8 -130 57 -219 162 -296 72 -53 87
-60 200 -92 161 -45 191 -37 79 22 -73 39 -127 97 -166 179 -18 37 -22 62 -21
145 1 103 2 108 82 335 11 30 45 101 76 158 31 56 56 106 56 110 0 5 17 35 39
68 21 32 62 102 91 154 29 52 63 109 76 125 13 17 30 47 39 66 9 18 36 66 60
104 25 39 50 81 56 95 12 27 15 33 70 135 111 205 178 431 166 559 -8 87 -30
139 -87 211 -41 52 -63 69 -132 103 -123 60 -348 121 -348 94z"/>
<path d="M4940 6070 c-53 -7 -191 -68 -205 -90 -4 -6 -24 -22 -46 -35 -21 -14
-51 -44 -66 -68 -16 -23 -41 -60 -58 -82 -65 -88 -151 -332 -170 -486 l-7 -55
-111 -28 c-62 -15 -133 -32 -158 -36 -54 -10 -454 -142 -516 -170 -24 -11 -45
-20 -48 -20 -3 0 -34 -13 -68 -30 -35 -16 -69 -30 -76 -30 -16 0 -374 -185
-426 -220 -22 -14 -49 -30 -59 -34 -29 -10 -285 -184 -329 -223 -20 -18 -41
-33 -46 -33 -5 0 -31 -21 -57 -46 -27 -25 -65 -56 -85 -69 -81 -53 -411 -396
-526 -548 -18 -23 -45 -58 -61 -77 -41 -50 -182 -262 -214 -321 -15 -28 -33
-58 -41 -67 -21 -24 -184 -345 -212 -417 -13 -33 -42 -102 -64 -153 -23 -51
-45 -109 -50 -130 -5 -20 -32 -103 -60 -183 -28 -80 -62 -197 -75 -260 -14
-63 -39 -175 -55 -249 -38 -174 -59 -331 -67 -501 l-6 -137 -106 -6 c-59 -3
-195 -8 -302 -12 -245 -7 -307 -17 -397 -60 -88 -42 -116 -80 -116 -159 0 -80
29 -120 117 -161 39 -17 98 -37 130 -43 65 -12 4162 -14 4204 -3 13 4 59 5
103 2 45 -3 82 -3 84 0 2 3 32 3 67 -1 35 -4 288 -6 563 -4 275 2 1435 4 2577
4 l2078 1 59 29 c91 46 128 109 118 198 -8 76 -47 112 -162 148 -35 11 -164
22 -443 37 -350 20 -392 24 -387 38 7 21 -11 360 -25 481 -23 202 -32 253 -70
396 -68 259 -90 332 -126 421 -20 48 -47 116 -61 152 -32 86 -172 365 -217
432 -19 30 -39 63 -43 74 -10 26 -180 278 -207 308 -12 12 -38 48 -60 79 -21
31 -42 57 -46 57 -4 0 -26 24 -49 54 -56 75 -111 134 -281 301 -172 169 -286
275 -297 275 -4 0 -35 25 -68 55 -33 31 -72 61 -87 68 -16 6 -28 15 -28 19 0
3 -55 43 -122 89 -68 45 -132 90 -143 99 -11 10 -36 26 -55 37 -19 10 -78 43
-130 74 -144 83 -260 143 -435 225 -157 73 -231 101 -475 179 -104 34 -391
105 -423 105 -14 0 -17 11 -17 64 0 77 -19 173 -56 282 -33 100 -61 154 -118
229 -25 33 -46 63 -46 67 0 4 -21 22 -47 40 -27 17 -55 39 -63 47 -8 8 -43 27
-77 44 -91 42 -216 55 -353 37z"/>
</g>
</svg>
